<svg viewBox="0 0 40 40" xmlns="http://www.w3.org/2000/svg"><path d="m36 20c0 2.21 0 4.4-.11 6.6a9.45 9.45 0 0 1 -2.58 6.71 9.45 9.45 0 0 1 -6.71 2.58c-2.2.11-4.39.11-6.6.11s-4.4 0-6.6-.11a9.45 9.45 0 0 1 -6.71-2.58 9.45 9.45 0 0 1 -2.58-6.71c-.11-2.2-.11-4.39-.11-6.6s0-4.4.11-6.6a9.45 9.45 0 0 1 2.58-6.71 9.45 9.45 0 0 1 6.71-2.58c2.2-.11 4.39-.11 6.6-.11s4.4 0 6.6.11a9.45 9.45 0 0 1 6.71 2.58 9.45 9.45 0 0 1 2.58 6.71c.11 2.2.11 4.39.11 6.6zm-16-13.12c-2.33 0-7.33-.19-9.44.64a5.49 5.49 0 0 0 -3 3c-.83 2.11-.64 7.11-.64 9.44s-.19 7.33.64 9.44a5.49 5.49 0 0 0 3 3c2.11.83 7.11.64 9.44.64s7.33.19 9.44-.64a5.49 5.49 0 0 0 3-3c.83-2.11.64-7.11.64-9.44s.19-7.33-.64-9.44a5.49 5.49 0 0 0 -3-3c-2.11-.83-7.11-.64-9.44-.64zm10.46 4.58a1.92 1.92 0 1 1 -1.92-1.92 1.92 1.92 0 0 1 1.92 1.92zm-2.25 8.54a8.21 8.21 0 1 1 -8.21-8.21 8.2 8.2 0 0 1 8.21 8.21zm-2.88 0a5.33 5.33 0 1 0 -5.33 5.33 5.33 5.33 0 0 0 5.33-5.33z" fill="#6d6e70" fill-rule="evenodd"/></svg>