<svg viewBox="0 0 40 40" xmlns="http://www.w3.org/2000/svg"><path d="m35.35 12.3a25.91 25.91 0 0 1 .59 4.78l.06 2.92-.06 2.92a26.22 26.22 0 0 1 -.59 4.84 4 4 0 0 1 -1.05 1.75 4.06 4.06 0 0 1 -1.82 1 41.47 41.47 0 0 1 -7.15.58l-5.33.11-5.33-.06a41.47 41.47 0 0 1 -7.15-.58 4.06 4.06 0 0 1 -1.82-1 4 4 0 0 1 -1-1.75 26.22 26.22 0 0 1 -.59-4.84l-.11-2.97c0-.86 0-1.83.06-2.92a25.91 25.91 0 0 1 .59-4.78 4 4 0 0 1 1-1.81 4.16 4.16 0 0 1 1.87-1.05 41.47 41.47 0 0 1 7.15-.58l5.33-.06 5.33.06a41.47 41.47 0 0 1 7.15.58 4.16 4.16 0 0 1 1.82 1.05 4 4 0 0 1 1.05 1.81zm-18.63 12.48 8.38-4.78-8.38-4.72z" fill="#6d6e70" fill-rule="evenodd"/></svg>