<svg viewBox="0 0 40 40" xmlns="http://www.w3.org/2000/svg"><path d="m36 10.09a13.94 13.94 0 0 1 -3.29 3.39v.86c.02 8.66-6.58 18.66-18.64 18.66a18.51 18.51 0 0 1 -10.07-2.95 13.82 13.82 0 0 0 1.58.08 13.14 13.14 0 0 0 8.15-2.8 6.58 6.58 0 0 1 -6.14-4.55 8.52 8.52 0 0 0 1.24.1 7.07 7.07 0 0 0 1.73-.22 6.56 6.56 0 0 1 -5.26-6.44v-.08a6.55 6.55 0 0 0 3 .83 6.58 6.58 0 0 1 -2-8.77 18.67 18.67 0 0 0 13.53 6.87 6.92 6.92 0 0 1 -.17-1.51 6.57 6.57 0 0 1 11.28-4.48 13.07 13.07 0 0 0 4.17-1.59 6.58 6.58 0 0 1 -2.89 3.62 13.38 13.38 0 0 0 3.78-1.02z" fill="#6d6e70" fill-rule="evenodd"/></svg>